<?xml version="1.0" standalone="no"?>
<!DOCTYPE svg PUBLIC "-//W3C//DTD SVG 20010904//EN"
 "http://www.w3.org/TR/2001/REC-SVG-20010904/DTD/svg10.dtd">
<svg version="1.0" xmlns="http://www.w3.org/2000/svg"
 width="502.000000pt" height="516.000000pt" viewBox="0 0 502.000000 516.000000"
 preserveAspectRatio="xMidYMid meet">

<g transform="translate(0.000000,516.000000) scale(0.100000,-0.100000)"
fill="#000000" stroke="none">
<path d="M2384 3877 c-132 -230 -490 -846 -584 -1007 -38 -63 -166 -284 -285
-490 -120 -206 -226 -390 -237 -407 l-20 -33 211 0 210 0 84 143 c46 78 229
393 407 700 178 306 326 557 330 557 6 0 72 -113 331 -560 58 -102 240 -414
403 -694 163 -280 296 -513 296 -517 0 -5 -561 -10 -1247 -11 l-1247 -3 -98
-169 c-54 -93 -98 -170 -98 -172 0 -2 747 -4 1660 -4 913 0 1660 1 1660 3 0 4
-76 137 -242 422 -192 330 -574 989 -630 1085 -30 52 -167 286 -303 520 -136
234 -299 516 -363 627 -65 112 -119 203 -122 203 -3 0 -55 -87 -116 -193z"/>
<path d="M2250 1832 c-27 -13 -36 -24 -38 -48 -4 -38 35 -74 77 -74 15 0 36
-7 47 -15 19 -15 19 -15 0 -30 -25 -19 -40 -19 -76 0 -25 13 -29 13 -35 -3 -9
-25 30 -52 75 -52 49 0 90 32 90 70 0 33 -40 70 -76 70 -35 0 -54 11 -54 31 0
15 7 19 33 19 18 0 43 -7 55 -16 12 -8 22 -11 22 -5 0 5 3 17 6 25 4 12 -4 20
-30 31 -45 19 -53 19 -96 -3z"/>
<path d="M2570 1838 c-37 -20 -51 -55 -47 -121 5 -77 27 -100 97 -101 45 -1
55 3 76 27 34 39 35 134 1 172 -26 31 -89 42 -127 23z m100 -57 c14 -27 13
-84 -3 -105 -9 -13 -23 -17 -52 -14 l-40 3 -3 54 c-4 73 0 81 47 81 30 0 43
-5 51 -19z"/>
<path d="M1110 1725 c0 -108 1 -115 20 -115 19 0 20 7 20 115 0 108 -1 115
-20 115 -19 0 -20 -7 -20 -115z"/>
<path d="M1200 1725 c0 -107 1 -115 19 -115 15 0 21 8 23 33 3 31 4 32 56 35
43 3 52 6 52 22 0 16 -9 19 -52 22 -52 3 -53 4 -56 36 l-3 32 70 0 c69 0 71 1
71 25 0 25 -1 25 -90 25 l-90 0 0 -115z"/>
<path d="M1420 1725 c0 -108 1 -115 20 -115 19 0 20 7 20 115 0 108 -1 115
-20 115 -19 0 -20 -7 -20 -115z"/>
<path d="M1510 1821 c0 -16 8 -20 38 -23 l37 -3 3 -92 c2 -84 5 -93 22 -93 17
0 20 9 22 93 l3 92 38 3 c29 3 37 7 37 23 0 18 -8 19 -100 19 -92 0 -100 -1
-100 -19z"/>
<path d="M1750 1725 l0 -115 25 0 c22 0 25 4 25 35 l0 35 55 0 c48 0 55 2 55
20 0 18 -7 20 -55 20 l-55 0 0 35 0 34 68 3 c59 3 67 5 67 23 0 18 -8 20 -92
23 l-93 3 0 -116z"/>
<path d="M1971 1773 c1 -124 33 -169 114 -159 66 8 85 39 85 142 0 77 -2 84
-20 84 -18 0 -20 -7 -20 -73 0 -91 -11 -110 -65 -105 l-40 3 -3 88 c-3 85 -3
87 -27 87 -24 0 -25 -2 -24 -67z"/>
<path d="M2430 1725 c0 -108 1 -115 20 -115 19 0 20 7 20 115 0 108 -1 115
-20 115 -19 0 -20 -7 -20 -115z"/>
<path d="M2770 1726 c0 -109 1 -116 20 -116 18 0 20 7 20 65 0 36 3 65 8 65 4
0 26 -30 50 -65 28 -44 49 -65 62 -65 19 0 20 7 20 115 l0 115 -25 0 c-23 0
-24 -4 -27 -62 l-3 -63 -40 60 c-26 38 -48 61 -63 63 -22 3 -22 2 -22 -112z"/>
</g>
</svg>
