<svg xmlns="http://www.w3.org/2000/svg" width="25.902" height="25.902" viewBox="0 0 25.902 25.902">
  <g id="Group_1181" data-name="Group 1181" transform="translate(-342 -17)">
    <path id="Path_575" data-name="Path 575" d="M6.475,0H19.426A6.475,6.475,0,0,1,25.9,6.475V19.426A6.475,6.475,0,0,1,19.426,25.9H6.475A6.475,6.475,0,0,1,0,19.426V6.475A6.475,6.475,0,0,1,6.475,0Z" transform="translate(342 17)" fill="#3c393f"/>
    <g id="_004-up_arrow" data-name="004-up arrow" transform="translate(348.178 34.361) rotate(-90)">
      <path id="Path_131" data-name="Path 131" d="M.486,13.615A.486.486,0,0,1,0,13.128V.486a.486.486,0,0,1,.972,0V13.128A.486.486,0,0,1,.486,13.615Z" transform="translate(3.889)" fill="#fff"/>
      <path id="Path_132" data-name="Path 132" d="M8.265,4.862a.488.488,0,0,1-.344-.142L4.375,1.173.83,4.72a.486.486,0,1,1-.688-.688L4.032.142a.487.487,0,0,1,.688,0l3.89,3.89a.486.486,0,0,1-.344.83Z" transform="translate(0 0.001)" fill="#fff"/>
    </g>
  </g>
</svg>
