<svg width="36" height="44" viewBox="0 0 36 44" fill="none" xmlns="http://www.w3.org/2000/svg">
<path d="M34.7969 18.875H21.125C19.8818 18.875 18.6895 18.3811 17.8104 17.5021C16.9314 16.623 16.4375 15.4307 16.4375 14.1875V0.515625C16.4375 0.412025 16.3963 0.312668 16.3231 0.239411C16.2498 0.166155 16.1505 0.125 16.0469 0.125H7.0625C5.4049 0.125 3.81518 0.78348 2.64308 1.95558C1.47098 3.12768 0.8125 4.7174 0.8125 6.375V37.625C0.8125 39.2826 1.47098 40.8723 2.64308 42.0444C3.81518 43.2165 5.4049 43.875 7.0625 43.875H28.9375C30.5951 43.875 32.1848 43.2165 33.3569 42.0444C34.529 40.8723 35.1875 39.2826 35.1875 37.625V19.2656C35.1875 19.162 35.1463 19.0627 35.0731 18.9894C34.9998 18.9162 34.9005 18.875 34.7969 18.875ZM25.8125 34.5H10.1875C9.7731 34.5 9.37567 34.3354 9.08265 34.0424C8.78962 33.7493 8.625 33.3519 8.625 32.9375C8.625 32.5231 8.78962 32.1257 9.08265 31.8326C9.37567 31.5396 9.7731 31.375 10.1875 31.375H25.8125C26.2269 31.375 26.6243 31.5396 26.9174 31.8326C27.2104 32.1257 27.375 32.5231 27.375 32.9375C27.375 33.3519 27.2104 33.7493 26.9174 34.0424C26.6243 34.3354 26.2269 34.5 25.8125 34.5ZM25.8125 26.6875H10.1875C9.7731 26.6875 9.37567 26.5229 9.08265 26.2299C8.78962 25.9368 8.625 25.5394 8.625 25.125C8.625 24.7106 8.78962 24.3132 9.08265 24.0201C9.37567 23.7271 9.7731 23.5625 10.1875 23.5625H25.8125C26.2269 23.5625 26.6243 23.7271 26.9174 24.0201C27.2104 24.3132 27.375 24.7106 27.375 25.125C27.375 25.5394 27.2104 25.9368 26.9174 26.2299C26.6243 26.5229 26.2269 26.6875 25.8125 26.6875Z" fill="#5EB2FF"/>
<path d="M33.9395 15.417L19.8955 1.37305C19.8682 1.3459 19.8335 1.32743 19.7957 1.31996C19.7579 1.31249 19.7188 1.31636 19.6832 1.33107C19.6476 1.34579 19.6171 1.37069 19.5957 1.40266C19.5742 1.43463 19.5627 1.47223 19.5625 1.51074V14.1875C19.5625 14.6019 19.7271 14.9993 20.0201 15.2924C20.3132 15.5854 20.7106 15.75 21.125 15.75H33.8018C33.8403 15.7498 33.8779 15.7383 33.9098 15.7168C33.9418 15.6954 33.9667 15.6649 33.9814 15.6293C33.9961 15.5937 34 15.5546 33.9925 15.5168C33.9851 15.479 33.9666 15.4443 33.9395 15.417Z" fill="#5EB2FF"/>
</svg>
