<svg id="svg" version="1.1" xmlns="http://www.w3.org/2000/svg" xmlns:xlink="http://www.w3.org/1999/xlink" width="400" height="400" viewBox="0, 0, 400,400"><g id="svgg"><path id="path0" d="M190.919 53.353 C 104.940 59.044,42.677 135.647,54.617 221.047 C 58.327 247.581,69.684 273.068,86.842 293.365 C 88.238 295.016,89.461 296.368,89.559 296.368 C 89.658 296.368,93.514 292.679,98.128 288.172 C 105.967 280.513,109.346 277.052,113.253 272.678 L 114.850 270.891 115.029 268.725 C 115.180 266.883,115.244 251.938,115.367 189.049 L 115.385 180.128 142.308 180.128 C 159.541 180.128,169.231 180.203,169.231 180.335 C 169.231 180.449,168.742 181.291,168.145 182.205 C 160.040 194.614,157.095 209.175,160.074 222.115 C 160.655 224.639,160.496 224.606,163.049 222.728 C 169.312 218.120,170.683 215.882,170.947 209.829 C 171.494 197.313,178.209 186.151,189.019 179.789 C 193.656 177.060,196.710 176.143,204.274 175.209 C 212.748 174.164,213.449 173.777,218.567 167.315 C 220.837 164.450,220.925 164.702,217.415 164.028 C 205.642 161.768,197.936 162.643,186.688 167.519 C 184.549 168.446,181.934 169.475,180.876 169.805 L 178.953 170.406 147.298 170.465 L 115.643 170.524 115.460 167.580 C 114.658 154.630,115.557 150.476,119.609 148.422 C 122.294 147.062,120.713 147.137,147.993 147.064 L 172.803 146.997 172.938 145.560 C 173.013 144.770,173.075 143.437,173.075 142.597 C 173.083 134.910,175.142 129.940,179.115 128.016 C 181.082 127.064,230.919 126.718,234.138 127.634 C 238.706 128.934,240.879 133.194,241.379 141.827 C 241.464 143.300,241.606 144.231,241.746 144.231 C 241.871 144.231,254.236 131.967,269.224 116.977 L 296.474 89.724 295.293 88.612 C 270.122 64.925,228.502 50.865,190.919 53.353 M308.812 123.895 C 297.064 135.506,286.674 146.168,286.906 146.375 C 286.998 146.457,288.309 146.874,289.821 147.301 C 295.198 148.821,297.107 150.214,297.787 153.116 C 298.221 154.967,298.357 165.347,297.994 168.890 L 297.821 170.580 285.823 170.453 C 279.199 170.382,271.338 170.419,268.275 170.535 L 262.724 170.744 261.651 171.421 C 259.516 172.769,253.473 179.399,253.947 179.873 C 254.029 179.955,263.943 180.029,275.978 180.038 C 288.014 180.047,297.933 180.127,298.022 180.216 C 298.111 180.305,298.181 200.105,298.177 224.217 L 298.171 268.056 297.685 269.274 C 296.773 271.560,294.730 273.342,292.067 274.170 C 290.812 274.561,288.832 274.573,225.411 274.573 C 152.146 274.573,159.353 274.414,156.924 276.080 C 155.263 277.220,114.316 318.279,114.316 318.806 C 114.316 318.998,119.455 322.684,122.115 324.399 C 182.859 363.567,265.624 350.499,312.510 294.338 C 351.995 247.040,358.150 179.799,327.775 127.564 C 325.342 123.381,319.477 114.626,318.845 114.235 C 318.758 114.181,314.243 118.528,308.812 123.895 M140.126 133.559 C 142.619 133.831,146.398 134.567,146.669 134.834 C 146.776 134.940,146.909 136.515,146.965 138.335 L 147.065 141.644 146.556 141.762 C 141.939 142.829,133.013 142.933,128.014 141.977 C 126.007 141.594,126.175 141.951,126.175 138.077 L 126.175 134.736 128.205 134.249 C 131.876 133.369,136.124 133.123,140.126 133.559 M246.443 187.196 C 244.404 188.267,242.035 190.198,240.314 192.192 L 239.283 193.385 240.577 197.194 C 243.018 204.381,243.728 208.291,243.528 213.437 C 242.772 232.888,226.961 248.534,208.013 248.582 C 203.113 248.594,199.257 247.873,192.572 245.695 C 190.425 244.995,188.550 244.495,188.405 244.582 C 188.260 244.670,186.383 246.371,184.235 248.363 L 180.329 251.984 180.991 252.387 C 207.321 268.399,240.124 257.347,251.507 228.630 C 256.287 216.572,255.343 200.610,249.116 188.194 C 248.173 186.313,248.143 186.302,246.443 187.196 " stroke="none" fill="#fbfbfb" fill-rule="evenodd"></path><path id="path1" d="M190.278 30.703 C 124.843 34.088,66.319 76.311,42.247 137.500 C 29.574 169.713,27.058 206.825,35.265 240.491 C 55.716 324.394,135.827 379.126,222.115 368.149 C 297.010 358.621,357.089 299.496,367.722 224.856 C 382.984 117.710,298.354 25.111,190.278 30.703 M208.444 53.211 C 241.892 55.362,271.955 67.619,295.620 88.754 L 296.688 89.708 269.168 117.210 C 254.033 132.336,241.609 144.671,241.560 144.623 C 241.511 144.574,241.368 143.239,241.242 141.658 C 240.410 131.197,238.169 127.962,231.452 127.527 C 227.277 127.257,189.211 127.239,184.179 127.505 C 175.690 127.953,173.682 130.854,173.177 143.398 L 173.034 146.946 170.779 147.084 C 169.538 147.160,158.514 147.224,146.281 147.226 C 122.239 147.230,122.493 147.219,119.967 148.375 C 117.228 149.629,116.008 151.509,115.585 155.128 C 115.327 157.339,115.429 166.894,115.737 169.284 L 115.868 170.299 146.769 170.298 C 182.767 170.296,179.649 170.514,186.432 167.521 C 197.969 162.429,207.380 161.495,219.203 164.268 L 220.777 164.637 218.819 167.147 C 213.735 173.664,212.635 174.314,205.155 175.222 C 197.833 176.112,195.090 176.809,191.132 178.790 C 179.066 184.826,171.455 196.731,171.074 210.163 C 170.916 215.707,169.329 218.191,162.895 222.962 C 160.389 224.820,160.633 224.895,159.968 222.061 C 156.929 209.124,159.876 194.650,168.118 182.032 L 169.177 180.410 160.710 180.270 C 156.054 180.192,143.998 180.129,133.921 180.128 L 115.598 180.128 115.547 185.096 C 115.519 187.829,115.495 206.026,115.494 225.534 C 115.492 245.043,115.405 263.183,115.300 265.847 L 115.109 270.689 113.060 273.005 C 109.617 276.897,106.048 280.537,97.669 288.707 L 89.637 296.539 89.133 296.079 C 87.307 294.416,81.059 286.435,77.712 281.492 C 47.535 236.930,44.769 177.765,70.633 130.102 C 97.804 80.032,152.341 49.603,208.444 53.211 M320.756 116.612 C 365.280 177.973,351.910 267.377,291.026 315.418 C 240.172 355.545,167.838 357.710,116.511 320.643 C 115.191 319.690,114.110 318.843,114.107 318.760 C 114.099 318.500,154.710 277.724,156.074 276.622 C 156.788 276.045,157.901 275.324,158.547 275.020 L 159.722 274.466 225.748 274.359 L 291.774 274.252 292.889 273.794 C 295.103 272.886,296.654 271.414,297.586 269.338 C 297.997 268.424,298.320 195.705,297.963 184.669 L 297.816 180.128 275.844 180.128 C 263.759 180.128,253.820 180.045,253.757 179.944 C 253.597 179.684,257.851 174.427,259.224 173.189 C 262.516 170.219,261.735 170.315,282.814 170.306 L 297.787 170.299 298.056 164.690 C 298.698 151.355,297.786 149.562,289.156 147.194 C 287.716 146.799,286.538 146.408,286.538 146.326 C 286.538 146.182,318.568 113.889,318.711 113.889 C 318.749 113.889,319.669 115.114,320.756 116.612 M131.944 133.681 C 130.491 133.899,127.832 134.416,127.078 134.627 L 126.271 134.852 126.330 138.206 L 126.389 141.560 128.526 141.936 C 132.806 142.690,139.490 142.656,145.139 141.853 L 146.795 141.618 146.795 138.238 L 146.795 134.858 145.246 134.529 C 141.830 133.802,140.969 133.712,136.859 133.650 C 134.509 133.614,132.297 133.628,131.944 133.681 M249.595 188.989 C 254.729 199.723,256.079 212.631,253.217 223.623 C 246.343 250.025,218.304 265.983,193.017 257.883 C 189.145 256.642,180.449 252.583,180.449 252.015 C 180.449 251.890,181.987 250.360,183.868 248.617 C 185.748 246.873,187.577 245.176,187.932 244.844 L 188.577 244.242 191.694 245.301 C 208.638 251.054,221.983 248.725,232.536 238.172 C 243.329 227.379,246.025 213.832,240.598 197.660 L 239.132 193.291 240.987 191.393 C 243.523 188.798,246.995 186.341,248.145 186.327 C 248.241 186.326,248.893 187.524,249.595 188.989 " stroke="none" fill="#6b6b6b" fill-rule="evenodd"></path><path id="path2" d="M194.818 53.142 C 195.083 53.193,195.515 53.193,195.780 53.142 C 196.044 53.091,195.828 53.050,195.299 53.050 C 194.770 53.050,194.554 53.091,194.818 53.142 M203.793 53.142 C 204.057 53.193,204.490 53.193,204.754 53.142 C 205.019 53.091,204.802 53.050,204.274 53.050 C 203.745 53.050,203.528 53.091,203.793 53.142 M190.976 127.292 C 191.360 127.339,191.937 127.338,192.258 127.289 C 192.579 127.241,192.265 127.202,191.560 127.203 C 190.855 127.204,190.592 127.244,190.976 127.292 M218.330 127.295 C 218.951 127.338,219.912 127.337,220.467 127.294 C 221.021 127.250,220.513 127.214,219.338 127.215 C 218.162 127.215,217.709 127.251,218.330 127.295 M183.814 127.498 C 184.020 127.551,184.356 127.551,184.562 127.498 C 184.768 127.444,184.599 127.400,184.188 127.400 C 183.777 127.400,183.608 127.444,183.814 127.498 M135.096 133.490 C 135.654 133.534,136.568 133.534,137.126 133.490 C 137.684 133.446,137.228 133.410,136.111 133.410 C 134.995 133.410,134.538 133.446,135.096 133.490 M126.143 137.179 C 126.143 138.178,126.180 138.587,126.225 138.088 C 126.270 137.588,126.270 136.771,126.225 136.271 C 126.180 135.772,126.143 136.181,126.143 137.179 M146.856 140.705 C 146.858 141.293,146.899 141.508,146.948 141.183 C 146.997 140.858,146.996 140.377,146.945 140.115 C 146.895 139.852,146.854 140.118,146.856 140.705 M135.634 142.676 C 136.018 142.724,136.595 142.723,136.916 142.674 C 137.237 142.625,136.923 142.586,136.218 142.588 C 135.513 142.589,135.250 142.629,135.634 142.676 M128.152 147.168 C 129.121 147.207,130.708 147.207,131.677 147.168 C 132.647 147.128,131.854 147.096,129.915 147.096 C 127.975 147.096,127.182 147.128,128.152 147.168 M147.825 147.169 C 151.271 147.202,156.848 147.202,160.218 147.169 C 163.589 147.136,160.769 147.109,153.953 147.109 C 147.137 147.109,144.379 147.136,147.825 147.169 M115.251 160.150 C 115.251 161.442,115.287 161.944,115.329 161.264 C 115.372 160.584,115.371 159.526,115.328 158.913 C 115.285 158.300,115.250 158.857,115.251 160.150 M115.653 170.085 C 115.728 170.361,116.623 170.407,122.026 170.411 L 128.312 170.416 122.126 170.354 C 117.522 170.308,115.892 170.225,115.753 170.029 C 115.616 169.836,115.589 169.852,115.653 170.085 M149.642 170.459 C 154.205 170.492,161.608 170.492,166.095 170.459 C 170.581 170.427,166.848 170.401,157.799 170.401 C 148.750 170.401,145.079 170.427,149.642 170.459 M268.429 170.446 C 268.635 170.500,268.972 170.500,269.177 170.446 C 269.383 170.393,269.215 170.349,268.803 170.349 C 268.392 170.349,268.224 170.393,268.429 170.446 M285.103 170.456 C 285.664 170.501,286.530 170.500,287.026 170.455 C 287.522 170.410,287.062 170.374,286.004 170.375 C 284.947 170.376,284.541 170.412,285.103 170.456 M256.574 180.069 C 256.958 180.117,257.535 180.116,257.856 180.067 C 258.177 180.018,257.863 179.980,257.158 179.981 C 256.453 179.982,256.190 180.022,256.574 180.069 M165.118 180.286 C 165.735 180.329,166.744 180.329,167.361 180.286 C 167.978 180.243,167.473 180.207,166.239 180.207 C 165.005 180.207,164.501 180.243,165.118 180.286 M115.456 184.402 C 115.456 185.283,115.494 185.644,115.540 185.203 C 115.586 184.762,115.586 184.041,115.540 183.600 C 115.494 183.160,115.456 183.520,115.456 184.402 M346.881 199.145 C 346.881 200.967,346.914 201.712,346.954 200.801 C 346.994 199.890,346.994 198.400,346.954 197.489 C 346.914 196.579,346.881 197.324,346.881 199.145 M298.173 206.517 C 298.173 210.748,298.202 212.509,298.237 210.431 C 298.272 208.352,298.272 204.891,298.237 202.738 C 298.202 200.586,298.173 202.286,298.173 206.517 M53.058 201.175 C 53.059 201.880,53.099 202.143,53.146 201.759 C 53.194 201.375,53.193 200.798,53.144 200.477 C 53.095 200.156,53.056 200.470,53.058 201.175 M158.815 210.150 C 158.817 210.620,158.861 210.787,158.912 210.521 C 158.963 210.255,158.961 209.871,158.907 209.666 C 158.854 209.462,158.812 209.679,158.815 210.150 M158.815 213.355 C 158.817 213.825,158.861 213.992,158.912 213.726 C 158.963 213.460,158.961 213.076,158.907 212.871 C 158.854 212.667,158.812 212.885,158.815 213.355 M298.175 236.752 C 298.175 241.629,298.203 243.624,298.237 241.186 C 298.271 238.747,298.271 234.757,298.237 232.318 C 298.203 229.880,298.175 231.875,298.175 236.752 M115.482 238.996 C 115.482 243.814,115.510 245.816,115.545 243.444 C 115.579 241.072,115.579 237.130,115.545 234.683 C 115.510 232.237,115.482 234.177,115.482 238.996 M207.425 248.655 C 207.690 248.706,208.122 248.706,208.387 248.655 C 208.651 248.604,208.435 248.562,207.906 248.562 C 207.377 248.562,207.161 248.604,207.425 248.655 M206.036 259.985 C 206.477 260.031,207.198 260.031,207.639 259.985 C 208.080 259.939,207.719 259.901,206.838 259.901 C 205.956 259.901,205.596 259.939,206.036 259.985 M115.237 261.859 C 115.238 262.564,115.278 262.827,115.326 262.443 C 115.373 262.059,115.372 261.482,115.324 261.161 C 115.275 260.840,115.236 261.154,115.237 261.859 M115.011 269.765 C 115.014 270.235,115.057 270.402,115.108 270.136 C 115.159 269.871,115.158 269.486,115.104 269.282 C 115.051 269.077,115.009 269.295,115.011 269.765 M194.088 274.519 C 211.461 274.549,239.826 274.549,257.122 274.519 C 274.417 274.489,260.203 274.464,225.534 274.464 C 190.865 274.464,176.715 274.489,194.088 274.519 M195.783 346.948 C 196.108 346.997,196.588 346.996,196.851 346.945 C 197.114 346.895,196.848 346.854,196.261 346.856 C 195.673 346.858,195.458 346.899,195.783 346.948 M204.116 346.948 C 204.441 346.997,204.922 346.996,205.185 346.945 C 205.447 346.895,205.182 346.854,204.594 346.856 C 204.006 346.858,203.791 346.899,204.116 346.948 " stroke="none" fill="#b4b4b4" fill-rule="evenodd"></path><path id="path3" d="M197.917 53.151 C 198.945 53.190,200.628 53.190,201.656 53.151 C 202.684 53.111,201.843 53.079,199.786 53.079 C 197.730 53.079,196.888 53.111,197.917 53.151 M268.269 118.002 L 253.953 132.372 268.323 118.056 C 281.680 104.749,282.788 103.632,282.638 103.632 C 282.609 103.632,276.142 110.099,268.269 118.002 M313.031 119.605 L 310.577 122.115 313.088 119.662 C 314.468 118.312,315.598 117.182,315.598 117.151 C 315.598 116.997,315.310 117.273,313.031 119.605 M188.729 127.290 C 189.052 127.339,189.581 127.339,189.904 127.290 C 190.227 127.241,189.963 127.201,189.316 127.201 C 188.670 127.201,188.405 127.241,188.729 127.290 M222.382 127.294 C 222.999 127.337,224.009 127.337,224.626 127.294 C 225.243 127.251,224.738 127.216,223.504 127.216 C 222.270 127.216,221.765 127.251,222.382 127.294 M182.532 127.498 C 182.738 127.551,183.074 127.551,183.280 127.498 C 183.486 127.444,183.317 127.400,182.906 127.400 C 182.495 127.400,182.326 127.444,182.532 127.498 M295.940 136.645 C 295.065 137.527,294.396 138.248,294.455 138.248 C 294.514 138.248,295.278 137.527,296.154 136.645 C 297.029 135.764,297.698 135.043,297.639 135.043 C 297.580 135.043,296.816 135.764,295.940 136.645 M146.870 138.034 C 146.870 139.033,146.906 139.442,146.951 138.942 C 146.996 138.443,146.996 137.626,146.951 137.126 C 146.906 136.627,146.870 137.035,146.870 138.034 M126.129 139.850 C 126.131 140.438,126.173 140.653,126.222 140.328 C 126.271 140.003,126.270 139.523,126.219 139.260 C 126.168 138.997,126.128 139.263,126.129 139.850 M133.923 142.672 C 134.189 142.724,134.574 142.722,134.778 142.668 C 134.982 142.615,134.765 142.573,134.295 142.575 C 133.825 142.578,133.658 142.621,133.923 142.672 M137.660 142.669 C 137.866 142.722,138.202 142.722,138.408 142.669 C 138.614 142.615,138.446 142.571,138.034 142.571 C 137.623 142.571,137.455 142.615,137.660 142.669 M242.029 143.917 C 241.699 144.207,241.514 144.444,241.618 144.444 C 241.721 144.444,242.032 144.204,242.308 143.910 C 242.946 143.231,242.805 143.234,242.029 143.917 M288.128 144.712 L 287.500 145.406 288.194 144.778 C 288.842 144.193,288.987 144.017,288.822 144.017 C 288.785 144.017,288.473 144.330,288.128 144.712 M124.840 147.162 C 125.163 147.211,125.692 147.211,126.015 147.162 C 126.338 147.113,126.074 147.073,125.427 147.073 C 124.781 147.073,124.517 147.113,124.840 147.162 M115.225 163.141 C 115.227 163.611,115.271 163.778,115.322 163.512 C 115.373 163.247,115.371 162.862,115.318 162.658 C 115.264 162.453,115.222 162.671,115.225 163.141 M131.464 170.459 C 133.315 170.495,136.343 170.495,138.194 170.459 C 140.045 170.423,138.531 170.394,134.829 170.394 C 131.127 170.394,129.613 170.423,131.464 170.459 M174.947 170.456 C 175.446 170.501,176.263 170.501,176.763 170.456 C 177.262 170.411,176.854 170.374,175.855 170.374 C 174.856 170.374,174.447 170.411,174.947 170.456 M270.032 170.454 C 270.414 170.501,271.039 170.501,271.421 170.454 C 271.803 170.406,271.490 170.368,270.726 170.368 C 269.963 170.368,269.650 170.406,270.032 170.454 M281.250 170.456 C 281.808 170.500,282.722 170.500,283.280 170.456 C 283.838 170.412,283.381 170.376,282.265 170.376 C 281.149 170.376,280.692 170.412,281.250 170.456 M258.536 173.878 L 257.799 174.679 258.600 173.943 C 259.346 173.258,259.500 173.077,259.337 173.077 C 259.301 173.077,258.941 173.438,258.536 173.878 M259.241 180.072 C 259.800 180.116,260.713 180.116,261.271 180.072 C 261.830 180.028,261.373 179.992,260.256 179.992 C 259.140 179.992,258.683 180.028,259.241 180.072 M287.648 180.074 C 288.905 180.112,291.021 180.112,292.349 180.074 C 293.678 180.037,292.650 180.006,290.064 180.006 C 287.479 180.005,286.392 180.036,287.648 180.074 M115.455 181.517 C 115.456 182.340,115.494 182.650,115.541 182.207 C 115.587 181.763,115.586 181.090,115.539 180.711 C 115.492 180.332,115.454 180.694,115.455 181.517 M298.166 194.979 C 298.166 197.212,298.198 198.096,298.236 196.944 C 298.275 195.792,298.275 193.965,298.236 192.884 C 298.197 191.803,298.166 192.746,298.166 194.979 M53.255 191.880 C 53.255 192.292,53.299 192.460,53.352 192.254 C 53.406 192.049,53.406 191.712,53.352 191.506 C 53.299 191.301,53.255 191.469,53.255 191.880 M115.264 203.098 C 115.263 206.036,115.294 207.268,115.330 205.835 C 115.367 204.402,115.367 201.998,115.331 200.493 C 115.294 198.988,115.264 200.160,115.264 203.098 M53.255 207.479 C 53.255 207.890,53.299 208.058,53.352 207.853 C 53.406 207.647,53.406 207.310,53.352 207.105 C 53.299 206.899,53.255 207.067,53.255 207.479 M346.631 207.479 C 346.631 207.890,346.675 208.058,346.728 207.853 C 346.782 207.647,346.782 207.310,346.728 207.105 C 346.675 206.899,346.631 207.067,346.631 207.479 M254.551 210.256 C 254.551 210.903,254.591 211.167,254.640 210.844 C 254.689 210.521,254.689 209.992,254.640 209.669 C 254.591 209.346,254.551 209.610,254.551 210.256 M158.819 211.752 C 158.819 212.281,158.861 212.497,158.911 212.233 C 158.962 211.968,158.962 211.536,158.911 211.271 C 158.861 211.007,158.819 211.223,158.819 211.752 M254.551 213.034 C 254.551 213.681,254.591 213.945,254.640 213.622 C 254.689 213.299,254.689 212.770,254.640 212.447 C 254.591 212.123,254.551 212.388,254.551 213.034 M298.169 250.534 C 298.169 253.355,298.200 254.479,298.237 253.033 C 298.274 251.586,298.274 249.279,298.236 247.904 C 298.199 246.530,298.169 247.714,298.169 250.534 M115.243 259.188 C 115.243 260.069,115.280 260.430,115.327 259.989 C 115.373 259.549,115.373 258.827,115.327 258.387 C 115.280 257.946,115.243 258.307,115.243 259.188 M115.018 268.056 C 115.020 268.643,115.061 268.858,115.111 268.533 C 115.160 268.209,115.158 267.728,115.108 267.465 C 115.057 267.202,115.017 267.468,115.018 268.056 M161.271 274.510 C 161.536 274.561,161.968 274.561,162.233 274.510 C 162.497 274.459,162.281 274.417,161.752 274.417 C 161.223 274.417,161.007 274.459,161.271 274.510 M139.849 292.788 L 133.868 298.825 139.904 292.843 C 145.513 287.285,146.036 286.752,145.885 286.752 C 145.855 286.752,143.139 289.468,139.849 292.788 M97.746 288.515 L 96.902 289.423 97.810 288.578 C 98.654 287.793,98.816 287.607,98.654 287.607 C 98.620 287.607,98.211 288.015,97.746 288.515 M90.051 295.994 L 89.423 296.688 90.118 296.060 C 90.765 295.475,90.910 295.299,90.745 295.299 C 90.708 295.299,90.396 295.612,90.051 295.994 M121.575 311.058 L 120.192 312.500 121.635 311.117 C 122.974 309.833,123.175 309.615,123.017 309.615 C 122.985 309.615,122.336 310.264,121.575 311.058 M198.771 346.954 C 199.682 346.994,201.173 346.994,202.083 346.954 C 202.994 346.914,202.249 346.881,200.427 346.881 C 198.606 346.881,197.861 346.914,198.771 346.954 " stroke="none" fill="#bcbcbc" fill-rule="evenodd"></path><path id="path4" d="M193.429 53.139 C 193.635 53.192,193.972 53.192,194.177 53.139 C 194.383 53.085,194.215 53.041,193.803 53.041 C 193.392 53.041,193.224 53.085,193.429 53.139 M205.395 53.139 C 205.601 53.192,205.938 53.192,206.143 53.139 C 206.349 53.085,206.181 53.041,205.769 53.041 C 205.358 53.041,205.190 53.085,205.395 53.139 M287.178 99.092 L 282.799 103.526 287.233 99.147 C 289.671 96.739,291.667 94.744,291.667 94.713 C 291.667 94.562,291.246 94.972,287.178 99.092 M317.195 115.438 L 315.705 116.987 317.254 115.497 C 318.693 114.113,318.901 113.889,318.744 113.889 C 318.712 113.889,318.015 114.586,317.195 115.438 M193.650 127.294 C 194.211 127.338,195.077 127.338,195.573 127.293 C 196.069 127.248,195.609 127.212,194.551 127.213 C 193.494 127.213,193.088 127.250,193.650 127.294 M213.408 127.295 C 214.143 127.337,215.345 127.337,216.079 127.295 C 216.814 127.253,216.213 127.219,214.744 127.219 C 213.275 127.219,212.674 127.253,213.408 127.295 M185.205 127.502 C 185.471 127.553,185.856 127.551,186.060 127.497 C 186.264 127.444,186.047 127.402,185.577 127.404 C 185.107 127.407,184.940 127.450,185.205 127.502 M230.497 127.505 C 230.877 127.552,231.550 127.553,231.993 127.506 C 232.436 127.460,232.126 127.421,231.303 127.421 C 230.481 127.420,230.118 127.457,230.497 127.505 M251.385 134.882 L 249.038 137.286 251.442 134.940 C 253.675 132.760,253.943 132.479,253.789 132.479 C 253.758 132.479,252.676 133.560,251.385 134.882 M293.048 139.583 L 291.987 140.705 293.109 139.645 C 293.726 139.062,294.231 138.557,294.231 138.523 C 294.231 138.364,294.033 138.541,293.048 139.583 M173.131 142.842 C 173.133 143.312,173.177 143.479,173.228 143.213 C 173.279 142.948,173.277 142.563,173.224 142.359 C 173.170 142.154,173.128 142.372,173.131 142.842 M135.428 147.168 C 136.639 147.206,138.562 147.206,139.702 147.168 C 140.841 147.129,139.850 147.098,137.500 147.098 C 135.150 147.099,134.217 147.130,135.428 147.168 M167.147 147.166 C 167.706 147.210,168.619 147.210,169.177 147.166 C 169.736 147.122,169.279 147.086,168.162 147.086 C 167.046 147.086,166.589 147.122,167.147 147.166 M298.126 162.821 C 298.126 163.232,298.170 163.400,298.224 163.194 C 298.278 162.989,298.278 162.652,298.224 162.447 C 298.170 162.241,298.126 162.409,298.126 162.821 M267.147 170.446 C 267.353 170.500,267.690 170.500,267.895 170.446 C 268.101 170.393,267.933 170.349,267.521 170.349 C 267.110 170.349,266.942 170.393,267.147 170.446 M290.343 170.459 C 291.790 170.496,294.098 170.496,295.472 170.459 C 296.846 170.421,295.662 170.391,292.842 170.391 C 290.021 170.391,288.897 170.422,290.343 170.459 M215.159 171.314 L 214.423 172.115 215.224 171.379 C 215.665 170.974,216.026 170.613,216.026 170.578 C 216.026 170.415,215.845 170.568,215.159 171.314 M254.327 180.068 C 254.650 180.117,255.179 180.117,255.502 180.068 C 255.825 180.019,255.561 179.979,254.915 179.979 C 254.268 179.979,254.004 180.019,254.327 180.068 M159.465 180.287 C 160.381 180.327,161.823 180.327,162.670 180.287 C 163.517 180.246,162.767 180.213,161.004 180.214 C 159.241 180.214,158.549 180.247,159.465 180.287 M297.943 182.372 C 297.944 183.665,297.979 184.166,298.021 183.486 C 298.064 182.806,298.064 181.748,298.021 181.135 C 297.977 180.523,297.943 181.079,297.943 182.372 M115.463 187.927 C 115.463 189.103,115.499 189.556,115.542 188.935 C 115.586 188.314,115.585 187.353,115.541 186.798 C 115.498 186.244,115.462 186.752,115.463 187.927 M346.853 195.085 C 346.853 195.614,346.895 195.831,346.946 195.566 C 346.997 195.302,346.997 194.869,346.946 194.605 C 346.895 194.340,346.853 194.557,346.853 195.085 M53.074 197.329 C 53.075 198.857,53.109 199.454,53.150 198.656 C 53.191 197.857,53.191 196.607,53.149 195.878 C 53.108 195.148,53.074 195.801,53.074 197.329 M53.062 203.739 C 53.063 204.562,53.101 204.872,53.147 204.429 C 53.194 203.986,53.193 203.313,53.146 202.933 C 53.098 202.554,53.061 202.917,53.062 203.739 M346.863 203.632 C 346.863 204.396,346.902 204.709,346.949 204.327 C 346.997 203.945,346.997 203.320,346.949 202.938 C 346.902 202.556,346.863 202.869,346.863 203.632 M243.451 211.752 C 243.451 212.751,243.488 213.160,243.533 212.660 C 243.578 212.161,243.578 211.343,243.533 210.844 C 243.488 210.345,243.451 210.753,243.451 211.752 M170.998 211.325 C 170.998 211.854,171.040 212.070,171.091 211.806 C 171.142 211.541,171.142 211.108,171.091 210.844 C 171.040 210.580,170.998 210.796,170.998 211.325 M298.173 221.047 C 298.172 224.925,298.201 226.542,298.237 224.640 C 298.272 222.737,298.272 219.564,298.237 217.588 C 298.202 215.612,298.173 217.169,298.173 221.047 M115.477 225.214 C 115.477 228.093,115.507 229.271,115.544 227.831 C 115.581 226.392,115.581 224.036,115.544 222.596 C 115.507 221.157,115.477 222.334,115.477 225.214 M115.470 250.641 C 115.470 252.345,115.503 253.042,115.543 252.190 C 115.584 251.338,115.584 249.944,115.543 249.092 C 115.503 248.240,115.470 248.937,115.470 250.641 M115.235 264.103 C 115.235 264.749,115.275 265.013,115.324 264.690 C 115.373 264.367,115.373 263.838,115.324 263.515 C 115.275 263.192,115.235 263.456,115.235 264.103 M297.927 265.171 C 297.927 265.817,297.967 266.082,298.016 265.759 C 298.065 265.435,298.065 264.907,298.016 264.583 C 297.967 264.260,297.927 264.525,297.927 265.171 M288.835 274.510 C 289.100 274.561,289.533 274.561,289.797 274.510 C 290.061 274.459,289.845 274.417,289.316 274.417 C 288.787 274.417,288.571 274.459,288.835 274.510 M152.347 280.075 L 149.893 282.585 152.404 280.132 C 154.736 277.852,155.012 277.564,154.858 277.564 C 154.826 277.564,153.697 278.694,152.347 280.075 M104.487 281.944 C 103.612 282.826,102.943 283.547,103.002 283.547 C 103.061 283.547,103.825 282.826,104.701 281.944 C 105.576 281.063,106.245 280.342,106.186 280.342 C 106.127 280.342,105.363 281.063,104.487 281.944 M96.037 290.224 L 95.192 291.132 96.100 290.288 C 96.945 289.502,97.107 289.316,96.945 289.316 C 96.910 289.316,96.502 289.725,96.037 290.224 M119.328 313.301 L 118.483 314.209 119.391 313.365 C 119.890 312.900,120.299 312.492,120.299 312.457 C 120.299 312.295,120.113 312.457,119.328 313.301 M114.531 318.268 C 114.255 318.562,114.070 318.838,114.120 318.881 C 114.169 318.925,114.433 318.685,114.706 318.348 C 115.318 317.594,115.210 317.545,114.531 318.268 M194.284 346.942 C 194.490 346.996,194.826 346.996,195.032 346.942 C 195.238 346.888,195.069 346.844,194.658 346.844 C 194.247 346.844,194.079 346.888,194.284 346.942 M205.823 346.942 C 206.028 346.996,206.365 346.996,206.571 346.942 C 206.776 346.888,206.608 346.844,206.197 346.844 C 205.785 346.844,205.617 346.888,205.823 346.942 " stroke="none" fill="#9e9e9e" fill-rule="evenodd"></path></g></svg>