<svg width="22" height="22" viewBox="0 0 22 22" fill="none" xmlns="http://www.w3.org/2000/svg">
    <path fill-rule="evenodd" clip-rule="evenodd" d="M10.644 1.833c-4.866 0-8.81 3.858-8.81 8.616 0 4.759 3.944 8.616 8.81 8.616a8.898 8.898 0 0 0 5.501-1.885l2.864 2.793.076.064a.69.69 0 0 0 .883-.065.653.653 0 0 0 0-.939l-2.83-2.76a8.481 8.481 0 0 0 2.316-5.824c0-4.758-3.944-8.616-8.81-8.616zm0 1.327c4.116 0 7.453 3.264 7.453 7.29 0 4.025-3.337 7.288-7.453 7.288-4.117 0-7.454-3.263-7.454-7.289 0-4.025 3.337-7.289 7.454-7.289z" fill="#94A3B8"/>
</svg>
