<svg width="28" height="28" viewBox="0 0 28 28" fill="none" xmlns="http://www.w3.org/2000/svg">
<path fill-rule="evenodd" clip-rule="evenodd" d="M19.9007 9.94665L13.1473 17.4464C12.9718 17.6418 12.7201 17.7591 12.4518 17.7704H12.4116C12.1561 17.7704 11.911 17.6742 11.7288 17.5025L8.73011 14.6785C8.34534 14.3161 8.33906 13.7224 8.71608 13.3526C9.09309 12.9827 9.71065 12.9767 10.0954 13.3391L12.3506 15.4654L18.4275 8.71974C18.78 8.3282 19.3959 8.28543 19.8032 8.62424C20.2105 8.96304 20.255 9.55511 19.9025 9.94665H19.9007ZM27.8859 5.5439C27.8576 5.11291 27.5266 4.75631 27.0844 4.68025C21.8121 3.77091 19.6111 3.1135 14.6911 0.977255C14.4358 0.866306 14.1431 0.866306 13.8878 0.977255C8.96774 3.1135 6.76678 3.77091 1.49447 4.68025C1.05225 4.75631 0.72131 5.11291 0.692954 5.5439C0.458291 9.12441 0.958687 12.4606 2.18199 15.4599C3.18375 17.9064 4.66628 20.1446 6.54856 22.0521C9.80765 25.376 13.2679 26.8197 13.928 27.0751C14.1626 27.1664 14.4248 27.1664 14.6594 27.0751C15.3195 26.8197 18.7798 25.376 22.0388 22.0521C23.9181 20.1439 25.3977 17.9058 26.3969 15.4599C27.6202 12.4606 28.1206 9.12441 27.8859 5.5439Z" fill="#F1F5F9"/>
</svg>
